<?xml version="1.0" encoding="utf-8"?>
<!-- Generator: Adobe Illustrator 25.4.1, SVG Export Plug-In . SVG Version: 6.00 Build 0)  -->
<svg version="1.1" id="Capa_1" xmlns="http://www.w3.org/2000/svg" xmlns:xlink="http://www.w3.org/1999/xlink" x="0px" y="0px"
	 viewBox="0 0 120 48" style="enable-background:new 0 0 120 48;" xml:space="preserve">
<style type="text/css">
	.st0{fill:#0500AC;}
	.st1{fill:#0200AA;}
	.st2{fill:#FB0003;}
</style>
<g>
	<path class="st0" d="M62.9,31.7c-2.2,0.1-3.7-1.5-3.4-3.8c0.3-2.3,2.2-5.4,4.8-5.3c1.2,0,1.8,0.8,1.7,1.8c-0.1,1.1-0.7,1.6-1.2,2
		c-0.2,0.2-0.7,0.5-1,0.2c-0.2-0.1,0-0.7,0.3-0.9c0.6-0.7,1-1.9,0.1-2c-1.3-0.1-2.9,1.8-3.2,3.9c-0.3,2.1,0.2,3,2.2,3.1
		c3.2,0,5.1-3.4,6.2-4.9c0.4-0.6,0.8,0.1-0.1,1.5C69.1,27.6,66.8,31.5,62.9,31.7z"/>
	<path class="st0" d="M77.6,25.8c0.3-0.5,0.7,0,0.3,0.9c-0.5,1.2-2.1,2.7-4.7,2.1c-0.7,1.6-1.9,3-3.6,2.9c-1.7-0.1-1.9-2.1-1.7-3.3
		c0.3-1.3,1.3-4,2.4-4.1c0.2-0.7,0.8-1.3,1.7-1.3c0.9-0.1,2.3,1.1,1.7,4.1c0,0.2-0.1,0.4-0.1,0.6c1.1,0.5,2.6,0.3,3.6-1.3L77.6,25.8
		z M70,30.7c0.9,0.1,1.8-1.2,2.2-2.2c-0.9-0.6-1.6-1.4-1.8-2.5c-0.4,0.3-1.2,1.8-1.3,2.5C69,29.2,68.9,30.6,70,30.7z M72.1,24.1
		c-0.6,0-0.8,0.9-0.6,1.5c0.1,0.6,0.5,1.2,1.2,1.6C72.8,25.9,73,24,72.1,24.1z"/>
	<path class="st0" d="M78.5,25.9c-0.1,0-0.4,0.6-1,1.4c-0.3,0.3-0.8-0.3-0.4-0.9c0.3-0.4,0.5-0.7,0.9-1.3c0.4-0.6,1.3-1,1.7,0.2
		c0.4,1.5-0.9,4-0.2,4.2c0.5,0.1,2.6-4.3,3-5c0.4-0.8,1.2-0.7,1.7,0c0.4,0.5-2.3,5.6,0.5,5.8c2.1,0.2,4.1-3,5.1-4.4
		c0.4-0.6,0.7,0.2-0.1,1.6c-0.3,0.5-2.5,4-5.1,3.9c-3.6-0.1-1.7-4.4-2.2-4.6c-0.3-0.1-1.6,4.3-3.4,4.2c-1.4-0.1-0.7-2.3-0.4-3.7
		C78.7,26.5,78.8,25.9,78.5,25.9z"/>
	<path class="st0" d="M91.5,31c-2.6-0.1-2.4-3.4-2.1-5.1c0.2-1.1,1.1-4.3,1.7-6.6h-5.5c0,0-1,0-1-0.5c0.1-0.7,1.1-0.5,1.3-0.5l5.4,0
		c0.2-0.8,0.4-1.4,0.4-1.4c0.2-0.6,0.3-0.9,0.9-0.7c0.3,0.1,0.4,0.8,0.4,1.2c0,0-0.1,0.4-0.2,1.1l5.6,0c0,0,0.9-0.1,0.8,0.4
		c-0.1,0.6-1.2,0.6-1.2,0.6h-5.4c-0.1,0.6-0.3,1.3-0.5,2.1c-0.2,0.7-1.2,3.8-1.4,4.8c-0.2,1-0.3,3.7,1.1,3.8
		c2.2,0.2,3.8-2.6,4.8-4.1c0.4-0.6,0.8,0.2-0.1,1.6C96.2,27.9,94.3,31.1,91.5,31z"/>
	<path class="st0" d="M98.1,31.5c-2.7,0-2.7-3.2-2.5-3.9c0.2-0.8,0.6-2.3,0.6-2.3c0.3-0.6,1.4-0.6,1.3,0.1c0,0.2-1.9,5.1,0.8,5
		c1.9-0.1,4-3.2,5-4.7c0.4-0.6,0.8,0.2-0.1,1.6C103,27.8,100.6,31.5,98.1,31.5z M98.1,22.8c-0.1,0.5-0.6,0.8-1.1,0.8
		c-0.7-0.1-0.7-0.7-0.7-1c0-0.3,0.5-1.2,1.2-1.1C98.2,21.5,98.2,22.3,98.1,22.8z"/>
	<path class="st0" d="M103.6,31.8c-2-0.5-1.8-2.6-0.8-4.8c0.9-2,2.3-3.9,3.8-3.6c1.2,0.2,1.5,1.2,1.5,1.2l0.5-0.8
		c0.3-0.5,1.4-0.2,1.1,0.4c0,0.1-0.7,1.6-1.5,3.6c-0.3,0.9-0.5,2.6-0.7,4.5c0.6-0.4,1.1-0.7,1.5-0.7c0.2-0.1,0.3,0.7,0.1,0.8
		c-0.5,0.3-1.1,0.7-1.6,1.2c-0.2,2.2-0.3,4.6-0.6,6.5c-0.4,2.6-2.1,7.3-5.1,7.4c-1.1,0-1.9-1.2-1.4-3.7c0.9-4,3.7-8.1,6-10.3
		c0.2-2,0.2-3.4,0.2-3.4S105.1,32.1,103.6,31.8z M101.5,43.5c-0.1,0.6-0.6,2.7,0.4,2.9c1.4,0.3,3-2.9,3.5-5.9c0.4-2,0.6-4,0.8-5.8
		C103.7,37.6,101.7,41.7,101.5,43.5z M107.1,26.2c-0.1-0.3,0.2-1.7-0.5-1.8c-1-0.2-2.4,2-2.8,3.3c-0.4,1.3-0.9,3.2,0,3.2
		c1.7,0,3.6-4.6,3.6-4.6S107.1,26.4,107.1,26.2z"/>
	<path class="st0" d="M119.1,25.8c0.3-0.5,0.7,0,0.3,0.9c-0.5,1.2-2.1,2.7-4.7,2.1c-0.7,1.6-1.9,3-3.6,2.9c-1.7-0.1-1.9-2.1-1.7-3.3
		c0.3-1.3,1.3-4,2.4-4.1c0.2-0.7,0.8-1.3,1.7-1.3c0.9-0.1,2.3,1.1,1.7,4.1c0,0.2-0.1,0.4-0.1,0.6c1.1,0.5,2.6,0.3,3.6-1.3
		L119.1,25.8z M111.5,30.7c0.9,0.1,1.8-1.2,2.2-2.2c-0.9-0.6-1.6-1.4-1.8-2.5c-0.4,0.3-1.2,1.8-1.3,2.5
		C110.4,29.2,110.3,30.6,111.5,30.7z M113.5,24.1c-0.6,0-0.8,0.9-0.6,1.5c0.1,0.6,0.5,1.2,1.2,1.6C114.2,25.9,114.4,24,113.5,24.1z"
		/>
</g>
<g>
	<path class="st1" d="M1.5,25.2c0.1-0.6,0.7-0.9,1.3-0.6C4.6,25.3,7.1,26,9.6,26c2.8,0,4.1-1,4.1-2.5c0-1.4-1.4-2.3-4.8-3.5
		c-5.1-1.8-8.5-4.6-8.5-9.1c0-5.3,4.5-9.4,12.1-9.4c3.2,0,5.5,0.5,7.4,1.2c0.4,0.2,0.7,0.6,0.6,1.1l-1.2,4.6
		c-0.1,0.5-0.7,0.8-1.2,0.6c-1.3-0.5-3.2-1-5.6-1c-2.5,0-3.8,0.9-3.8,2.2c0,1.5,1.6,2.1,5.4,3.6c5.4,2,7.9,4.9,7.9,9.1
		c0,5.2-4.1,9.6-12.9,9.6c-3.2,0-6.3-0.7-8.2-1.5c-0.4-0.2-0.6-0.6-0.5-1.1L1.5,25.2z"/>
	<path class="st1" d="M23.4,3c0-0.3,0.2-0.6,0.5-0.6c2.3-0.3,5.5-0.6,9.2-0.6c4.6,0,8,0.6,10.2,2.3c1.9,1.5,3,3.6,3,6.6
		c0,3.8-2.8,6.4-5.2,7.3v0.2c2,0.9,3.1,2.8,3.9,5.4c0.8,2.5,1.6,6,2.2,7.8c0.1,0.4-0.2,0.8-0.6,0.8h-6.9c-0.3,0-0.5-0.1-0.6-0.4
		c-0.5-1.1-1.2-3.3-1.9-6.6c-0.8-3.6-1.9-4.4-4.4-4.4h-1.3v10.7c0,0.3-0.3,0.6-0.6,0.6h-6.7c-0.4,0-0.6-0.3-0.6-0.6V3z M31.4,15h2.1
		c3.1,0,4.8-1.5,4.8-3.7s-1.5-3.5-4.2-3.6c-1.5,0-2.3,0.1-2.7,0.2V15z"/>
	<path class="st1" d="M49.4,9.5c-0.5,0.2-0.6,0.3-0.6,0.6l0,7.7l0,13.8c0,0.3,0.3,0.5,0.7,0.5h6.7c0.4,0,0.7-0.2,0.7-0.5V8
		c0-0.4-0.4-1.3-1.5-0.8L49.4,9.5z"/>
	<path class="st2" d="M48.7,2.8v4.2c0,0.7,0.7,1.1,1.3,0.9l6.5-2.5c0.4-0.2,0.4-0.8,0-0.9L50,1.9C49.4,1.6,48.7,2.1,48.7,2.8z"/>
</g>
</svg>
